<svg xmlns="http://www.w3.org/2000/svg" xmlns:xlink="http://www.w3.org/1999/xlink" width="80" height="80" viewBox="0 0 80 80">
  <defs>
    <clipPath id="clip-ic_drone">
      <rect width="80" height="80"/>
    </clipPath>
  </defs>
  <g id="ic_drone" clip-path="url(#clip-ic_drone)">
    <g id="Group_68" data-name="Group 68" transform="translate(-614 -473)">
      <path id="Union_4" data-name="Union 4" d="M0,40V0H40A40,40,0,1,1,0,40Z" transform="translate(614 473)" fill="#ff8400"/>
      <g id="drone" transform="translate(634 498.556)">
        <path id="Path_31" data-name="Path 31" d="M21.618,21H18.383a7.94,7.94,0,0,1-7.763-6.363l-.058-.3a2.092,2.092,0,0,0-2.045-1.675H3.333A3.333,3.333,0,1,1,3.333,6H36.667a3.333,3.333,0,0,1,0,6.667H31.483a2.091,2.091,0,0,0-2.043,1.675l-.058.293A7.94,7.94,0,0,1,21.618,21Z" transform="translate(0 -1)" fill="#fff"/>
        <path id="Path_32" data-name="Path 32" d="M9.333,6.333H2.667A1.667,1.667,0,1,1,2.667,3H9.333a1.667,1.667,0,1,1,0,3.333Z" transform="translate(0.667 -3)" fill="#fff"/>
        <path id="Path_33" data-name="Path 33" d="M7,22.333H3.667a1.667,1.667,0,1,1,0-3.333H7a1.667,1.667,0,1,1,0,3.333Z" transform="translate(1.333 7.667)" fill="#fff"/>
        <path id="Path_34" data-name="Path 34" d="M23,22.333H19.667a1.667,1.667,0,1,1,0-3.333H23a1.667,1.667,0,1,1,0,3.333Z" transform="translate(12 7.667)" fill="#fff"/>
        <path id="Path_35" data-name="Path 35" d="M4.667,10.5A1.667,1.667,0,0,1,3,8.833V4.667a1.667,1.667,0,1,1,3.333,0V8.833A1.667,1.667,0,0,1,4.667,10.5Z" transform="translate(2 -3)" fill="#fff"/>
        <path id="Path_36" data-name="Path 36" d="M25.333,6.333H18.667a1.667,1.667,0,0,1,0-3.333h6.667a1.667,1.667,0,1,1,0,3.333Z" transform="translate(11.333 -3)" fill="#fff"/>
        <path id="Path_37" data-name="Path 37" d="M20.667,10.5A1.667,1.667,0,0,1,19,8.833V4.667a1.667,1.667,0,1,1,3.333,0V8.833A1.667,1.667,0,0,1,20.667,10.5Z" transform="translate(12.667 -3)" fill="#fff"/>
        <path id="Path_38" data-name="Path 38" d="M4.667,27A1.667,1.667,0,0,1,3,25.333v-5A8.343,8.343,0,0,1,11.333,12a1.667,1.667,0,1,1,0,3.333,5.006,5.006,0,0,0-5,5v5A1.667,1.667,0,0,1,4.667,27Z" transform="translate(2 3)" fill="#fff"/>
        <path id="Path_39" data-name="Path 39" d="M23.333,27a1.667,1.667,0,0,1-1.667-1.667v-5a5.006,5.006,0,0,0-5-5,1.667,1.667,0,1,1,0-3.333A8.343,8.343,0,0,1,25,20.333v5A1.667,1.667,0,0,1,23.333,27Z" transform="translate(10 3)" fill="#fff"/>
      </g>
    </g>
  </g>
</svg>
