<svg xmlns="http://www.w3.org/2000/svg" xmlns:xlink="http://www.w3.org/1999/xlink" width="80" height="80" viewBox="0 0 80 80">
  <defs>
    <clipPath id="clip-ic_film">
      <rect width="80" height="80"/>
    </clipPath>
  </defs>
  <g id="ic_film" clip-path="url(#clip-ic_film)">
    <g id="ic_film-2" data-name="ic_film" transform="translate(1423 -2637)">
      <path id="Union_1" data-name="Union 1" d="M0,40V0H40A40,40,0,1,1,0,40Z" transform="translate(-1423 2637)" fill="#ff8400"/>
      <g id="clapperboard_1_" data-name="clapperboard(1)" transform="translate(-1400.778 2662.555)">
        <g id="Group_62" data-name="Group 62" transform="translate(0 0)">
          <g id="Group_61" data-name="Group 61" transform="translate(0 0)">
            <path id="Path_19" data-name="Path 19" d="M15.6,185.574a3.247,3.247,0,0,0,3.232,3.232H46.386a3.247,3.247,0,0,0,3.232-3.232v-11.9H15.6Zm12.89-4.336v-3.666a1.05,1.05,0,0,1,.118-.473.961.961,0,0,1,1.3-.355L33.1,178.6l3.153,1.813a.774.774,0,0,1,.355.355.928.928,0,0,1-.355,1.3l-3.114,1.813-.039.039-3.114,1.813a.905.905,0,0,1-.552.158.959.959,0,0,1-.946-.946v-3.705Z" transform="translate(-14.063 -159.86)" fill="#fff"/>
            <path id="Path_20" data-name="Path 20" d="M191.451,43.752l4.336-5.282-4.612.434L186.8,44.225Z" transform="translate(-168.392 -37.983)" fill="#fff"/>
            <path id="Path_21" data-name="Path 21" d="M111.451,51.392l4.375-5.322-4.651.473L106.8,51.825Z" transform="translate(-96.275 -44.834)" fill="#fff"/>
            <path id="Path_22" data-name="Path 22" d="M275.545,38.117l-.2-1.892a2.99,2.99,0,0,0-3.232-2.68l-1.34.118L266.4,38.984Z" transform="translate(-240.147 -33.531)" fill="#fff"/>
            <path id="Path_23" data-name="Path 23" d="M20.759,58.248v1.419l2.8-.276,4.375-5.322-7.647.749A2.915,2.915,0,0,0,18,56.317h.867A1.877,1.877,0,0,1,20.759,58.248Z" transform="translate(-16.226 -52.046)" fill="#fff"/>
            <path id="Path_24" data-name="Path 24" d="M116.739,118.518l-4.848-4.848H107.2l4.888,4.848Z" transform="translate(-96.636 -105.773)" fill="#fff"/>
            <path id="Path_25" data-name="Path 25" d="M18.6,113.67v1.5a1.935,1.935,0,0,1-1.932,1.932H15.6v1.419H26.282l-4.888-4.848Z" transform="translate(-14.063 -105.773)" fill="#fff"/>
            <path id="Path_26" data-name="Path 26" d="M197.1,118.518l-4.849-4.848H187.6l4.848,4.848Z" transform="translate(-169.113 -105.773)" fill="#fff"/>
            <path id="Path_27" data-name="Path 27" d="M267.6,113.67l4.888,4.848h4.3V113.67Z" transform="translate(-241.229 -105.773)" fill="#fff"/>
            <path id="Path_28" data-name="Path 28" d="M3.351,92.811V89.618a.748.748,0,0,0-.749-.749H.749A.748.748,0,0,0,0,89.618v3.193a.748.748,0,0,0,.749.749H2.6A.748.748,0,0,0,3.351,92.811Z" transform="translate(0 -83.416)" fill="#fff"/>
          </g>
        </g>
      </g>
    </g>
  </g>
</svg>
