<svg xmlns="http://www.w3.org/2000/svg" xmlns:xlink="http://www.w3.org/1999/xlink" width="80" height="80" viewBox="0 0 80 80">
  <defs>
    <clipPath id="clip-ic_roll">
      <rect width="80" height="80"/>
    </clipPath>
  </defs>
  <g id="ic_roll" clip-path="url(#clip-ic_roll)">
    <g id="Group_63" data-name="Group 63" transform="translate(-440 -344)">
      <path id="Union_2" data-name="Union 2" d="M0,40V0H40A40,40,0,1,1,0,40Z" transform="translate(440 344)" fill="#ff8400"/>
      <path id="film" d="M35.556,17.778A17.778,17.778,0,1,0,17.778,35.556H35.556V32.593H27.593A17.775,17.775,0,0,0,35.556,17.778Zm-9.07,11.986a4.445,4.445,0,1,1,.983-6.208A4.444,4.444,0,0,1,26.486,29.763Zm-.218-19.417a4.444,4.444,0,1,1-2.854,5.6,4.444,4.444,0,0,1,2.854-5.6Zm-8.49-7.384a4.444,4.444,0,1,1-4.444,4.444A4.445,4.445,0,0,1,17.778,2.963ZM3.688,13.2a4.445,4.445,0,1,1,2.854,5.6,4.445,4.445,0,0,1-2.854-5.6Zm11.59,15.58a4.444,4.444,0,1,1-.983-6.207,4.444,4.444,0,0,1,.983,6.207Zm1.019-11a1.481,1.481,0,1,1,1.481,1.481A1.482,1.482,0,0,1,16.3,17.778Zm0,0" transform="translate(462.222 366.222)" fill="#fff"/>
    </g>
  </g>
</svg>
