<svg xmlns="http://www.w3.org/2000/svg" xmlns:xlink="http://www.w3.org/1999/xlink" width="80" height="80" viewBox="0 0 80 80">
  <defs>
    <clipPath id="clip-ic_star">
      <rect width="80" height="80"/>
    </clipPath>
  </defs>
  <g id="ic_star" clip-path="url(#clip-ic_star)">
    <g id="Group_69" data-name="Group 69" transform="translate(-590 -404)">
      <path id="Union_5" data-name="Union 5" d="M0,40V0H40A40,40,0,1,1,0,40Z" transform="translate(590 404)" fill="#ff8400"/>
      <g id="star-black-fivepointed-shape" transform="translate(611.111 428.444)">
        <path id="Path_40" data-name="Path 40" d="M36.577,16.294,29.032,23.65l1.781,10.387a2,2,0,0,1-2.9,2.1l-9.328-4.9-9.328,4.9a1.992,1.992,0,0,1-2.894-2.1L8.149,23.652.6,16.3a1.993,1.993,0,0,1,1.1-3.4l10.429-1.517L16.8,1.927a1.992,1.992,0,0,1,3.575,0l4.667,9.451,10.431,1.517a2,2,0,0,1,1.1,3.4Z" transform="translate(0.001 -0.814)" fill="#fff"/>
      </g>
    </g>
  </g>
</svg>
