<svg xmlns="http://www.w3.org/2000/svg" xmlns:xlink="http://www.w3.org/1999/xlink" width="80" height="80" viewBox="0 0 80 80">
  <defs>
    <clipPath id="clip-ic_take">
      <rect width="80" height="80"/>
    </clipPath>
  </defs>
  <g id="ic_take" clip-path="url(#clip-ic_take)">
    <g id="Group_67" data-name="Group 67" transform="translate(-448 -449)">
      <path id="Union_3" data-name="Union 3" d="M0,40V0H40A40,40,0,1,1,0,40Z" transform="translate(448 449)" fill="#ff8400"/>
      <g id="video-camera" transform="translate(470.222 473.444)">
        <g id="Group_60" data-name="Group 60" transform="translate(0 0)">
          <g id="Group_59" data-name="Group 59" transform="translate(0 0)">
            <path id="Path_15" data-name="Path 15" d="M262.924,164.968a1.451,1.451,0,0,0-2.009-.513l-4.872,2.82L254.8,168v6.752l1.154.684c.043,0,.043.043.085.043l4.786,2.778a1.315,1.315,0,0,0,.812.256,1.441,1.441,0,0,0,1.453-1.453v-5.726l.043-5.641A1.119,1.119,0,0,0,262.924,164.968Z" transform="translate(-227.582 -149.028)" fill="#fff"/>
            <path id="Path_16" data-name="Path 16" d="M6.881,35.563A6.88,6.88,0,1,0,0,28.682,6.876,6.876,0,0,0,6.881,35.563Zm0-9.7a2.82,2.82,0,1,1-2.82,2.82A2.765,2.765,0,0,1,6.881,25.862Z" transform="translate(0 -21.802)" fill="#fff"/>
            <path id="Path_17" data-name="Path 17" d="M37.182,150.629a8.19,8.19,0,0,1-3.675.9,7.991,7.991,0,0,1-4.444-1.325H24.19a7.991,7.991,0,0,1-4.444,1.325,7.667,7.667,0,0,1-3.675-.9,3.341,3.341,0,0,0-1.667,2.863V163.92a3.474,3.474,0,0,0,3.461,3.461H35.429a3.474,3.474,0,0,0,3.461-3.461V153.493A3.476,3.476,0,0,0,37.182,150.629Z" transform="translate(-12.865 -136.484)" fill="#fff"/>
            <path id="Path_18" data-name="Path 18" d="M135.684,35.563a6.88,6.88,0,1,0-6.88-6.88A6.876,6.876,0,0,0,135.684,35.563Zm0-9.7a2.82,2.82,0,1,1-2.82,2.82A2.818,2.818,0,0,1,135.684,25.862Z" transform="translate(-115.043 -21.802)" fill="#fff"/>
          </g>
        </g>
      </g>
    </g>
  </g>
</svg>
